<?xml version="1.0" encoding="UTF-8"?> <svg xmlns="http://www.w3.org/2000/svg" width="4.58in" height="1.26in" viewBox="0 0 329.91 90.57"><g><path d="M7.11,54.14A24.29,24.29,0,0,1,31.43,29.61a23.7,23.7,0,0,1,15,5.43,2.36,2.36,0,0,1-2.89,3.72,18.92,18.92,0,0,0-12.16-4.43,19.86,19.86,0,0,0,0,39.71,19.44,19.44,0,0,0,12.16-4.32,2.31,2.31,0,0,1,3.18.4,2.44,2.44,0,0,1-.48,3.52,23.76,23.76,0,0,1-14.86,5.23A24.34,24.34,0,0,1,7.11,54.14Z" transform="translate(-6.61 -8)" fill="#f68d34" stroke="#f68d34" stroke-miterlimit="10"></path><path d="M98.5,32V76.46a2.32,2.32,0,1,1-4.63,0V69.12a21.85,21.85,0,0,1-17.76,9.75c-12.45,0-22.39-11.16-22.39-24.63s9.94-24.63,22.39-24.63a21.75,21.75,0,0,1,17.76,9.65V32a2.32,2.32,0,1,1,4.63,0ZM93.87,54.24c0-11.06-8-19.91-17.76-19.91S58.35,43.18,58.35,54.24,66.46,74,76.11,74,93.87,65.29,93.87,54.24Z" transform="translate(-6.61 -8)" fill="#f68d34" stroke="#f68d34" stroke-miterlimit="10"></path><path d="M128.32,32A2.54,2.54,0,0,1,126,34.43h-6.08V70.32a3.77,3.77,0,0,0,3.48,3.62,2.74,2.74,0,0,1,2.41,2.52,2.64,2.64,0,0,1-2.41,2.41,8.22,8.22,0,0,1-8.31-8.55V34.43h-5.88c-2.32,0-2.32-1.2-2.32-2.41s0-2.41,2.32-2.41h5.88V11.31a2.54,2.54,0,0,1,2.32-2.41,2.64,2.64,0,0,1,2.51,2.41v18.3H126A2.54,2.54,0,0,1,128.32,32Z" transform="translate(-6.61 -8)" fill="#f68d34" stroke="#f68d34" stroke-miterlimit="10"></path><path d="M180.43,32V76.46a2.32,2.32,0,1,1-4.63,0V69.12A21.85,21.85,0,0,1,158,78.87c-12.45,0-22.39-11.16-22.39-24.63S145.59,29.61,158,29.61a21.75,21.75,0,0,1,17.76,9.65V32a2.32,2.32,0,1,1,4.63,0ZM175.8,54.24c0-11.06-8-19.91-17.76-19.91s-17.76,8.85-17.76,19.91S148.39,74,158,74,175.8,65.29,175.8,54.24Z" transform="translate(-6.61 -8)" fill="#f68d34" stroke="#f68d34" stroke-miterlimit="10"></path><path d="M195.77,10.91a2.37,2.37,0,1,1,4.73,0V76.46a2.37,2.37,0,1,1-4.73,0Z" transform="translate(-6.61 -8)" fill="#fbc04a" stroke="#fbc04a" stroke-miterlimit="10"></path><path d="M214.68,31.92a2.29,2.29,0,0,1,2.22-2.31,2.34,2.34,0,0,1,2.42,2.31V58.66c0,8.45,6.46,15.18,14.47,15.18s14.58-6.73,14.67-15.18V31.92a1.81,1.81,0,0,1,.39-1.21c0-.1.1-.2.1-.3s.09-.1.19-.1a1.72,1.72,0,0,1,.87-.6h.19c.09,0,.19-.1.29-.1h.58a5.81,5.81,0,0,1,1.16.5,2.5,2.5,0,0,1,.58.8,2.08,2.08,0,0,1,.29,1V75c0,12.86-10,23.12-22.49,23.12a22.81,22.81,0,0,1-9.75-2.31,2.55,2.55,0,0,1-1-3.22,2.44,2.44,0,0,1,3-1.21,16.87,16.87,0,0,0,7.72,1.92c9.84,0,17.76-8.15,17.85-18.3V71.73a19.25,19.25,0,0,1-14.67,7c-10.52-.1-19.11-9-19.11-20.11Z" transform="translate(-6.61 -8)" fill="#fbc04a" stroke="#fbc04a" stroke-miterlimit="10"></path><path d="M283.65,32a2.54,2.54,0,0,1-2.32,2.41h-6.08V70.32a3.77,3.77,0,0,0,3.48,3.62,2.74,2.74,0,0,1,2.41,2.52,2.64,2.64,0,0,1-2.41,2.41,8.21,8.21,0,0,1-8.3-8.55V34.43h-5.89c-2.32,0-2.32-1.2-2.32-2.41s0-2.41,2.32-2.41h5.89V11.31a2.54,2.54,0,0,1,2.32-2.41,2.64,2.64,0,0,1,2.5,2.41v18.3h6.08A2.54,2.54,0,0,1,283.65,32Z" transform="translate(-6.61 -8)" fill="#fbc04a" stroke="#fbc04a" stroke-miterlimit="10"></path><path d="M290.27,54.34c0-13.68,10.24-24.73,23-24.73,12.16,0,21.81,10,22.77,22.92v.4a2.22,2.22,0,0,1-2.31,2.21h-38.8C295.39,65.9,303.5,74,313.25,74a17.64,17.64,0,0,0,15.24-8.94,2.21,2.21,0,0,1,3.09-.81,2.63,2.63,0,0,1,.77,3.42,22.34,22.34,0,0,1-19.1,11.16C300.51,78.87,290.27,67.81,290.27,54.34Zm4.93-3.92H331c-1.54-9.25-9.07-16-17.75-16C304.37,34.43,296.93,41.07,295.2,50.42Z" transform="translate(-6.61 -8)" fill="#fbc04a" stroke="#fbc04a" stroke-miterlimit="10"></path></g></svg> 